<svg xmlns="http://www.w3.org/2000/svg"><symbol id="icons" viewBox="0 0 1390.98 230.27"><path d="M105.54 19.19v105.53h24.08l-43.27 48.07-43.27-48.07h24.08V19.19zM124.73 0H47.97v105.54h-48l86.38 95.94 86.35-95.94h-48zm28.78 182.29v28.78H19.19v-28.78H0v48h172.7v-48zm832.46-91.91c2.08-10 13.81-55.62 48.06-55.62 19.82 0 41.24 13.85 41.24 44.68 0 34.89-32.39 75.64-89.3 112.78-56.92-37.09-89.31-77.89-89.31-112.78 0-31.12 21.16-44.7 40.88-44.7 35.03 0 45.94 45.78 48.43 55.64zM878.8 79.44c0 36.32 27.33 84.66 107.17 133.92 79.83-49.26 107.16-97.6 107.16-133.92 0-71.11-86.16-80.63-107.16-33.38C965.09-.93 878.8 7.93 878.8 79.44zm512.18 9.98h-34.28V46.57h-42.85V12.29h77.13zm-77.13 128.55v-34.28h42.85v-42.85h34.28v77.13zm-128.56-77.13h34.28v42.85h42.85v34.28h-77.13zm77.13-128.55v34.28h-42.85v42.85h-34.28V12.29zM279.6 115.13l96.68 27.25 61.53-71.2-71.69 49.86-37.9-10.57 135-67.5-34.87 128.06-33-29.35-19.08 25.71v-6.76l-17.58-4.92v64.89l39.32-53 39.79 35.43L490.55 9.66z"/><path fill-rule="evenodd" d="M760.48 37.13c-21.13-17-50-26.7-79.06-26.7-29.59 0-57.71 9.53-79.2 26.85-22.4 18.05-34.73 42.53-34.73 68.93a84.59 84.59 0 0 0 18.1 52.21l-20.45 65.33 71.21-30.73a182.36 182.36 0 0 0 43.88 5.58c32 0 61.41-9.65 82.71-27.18 20.88-17.23 32.41-40.39 32.41-65.21 0-26.48-12.38-51-34.87-69.08zm-80.3 143c-17.36 0-31.34-3-43.86-6.18l-1.55-.4-39.95 17.26 11.41-36.45-1.64-2c-9.67-11.56-18.62-25.16-18.62-46.17 0-42.62 42.82-77.3 95.45-77.3s95.45 34.68 95.45 77.3c0 42.16-41.52 73.94-96.69 73.94z"/><circle cx="726.94" cy="106.15" r="18.34"/><path fill-rule="evenodd" d="M681.42 124.49a18.35 18.35 0 1 1 18.34-18.36 18.36 18.36 0 0 1-18.34 18.36zm-45.52 0a18.35 18.35 0 1 1 18.35-18.36 18.36 18.36 0 0 1-18.35 18.36z"/></symbol></svg>